<svg width="25" height="24" viewBox="0 0 25 24" fill="none" xmlns="http://www.w3.org/2000/svg">
<g clip-path="url(#clip0)">
<path fill-rule="evenodd" clip-rule="evenodd" d="M12.8708 0C6.24613 0 0.87085 5.37528 0.87085 12C0.87085 18.6247 6.24613 24 12.8708 24C19.4826 24 24.8708 18.6247 24.8708 12C24.8708 5.37528 19.4826 0 12.8708 0ZM20.7971 5.53145C22.2288 7.27548 23.0878 9.5011 23.1138 11.9089C22.7754 11.8438 19.3915 11.154 15.9815 11.5835C15.9034 11.4143 15.8383 11.2321 15.7602 11.0499C15.552 10.5553 15.3177 10.0477 15.0834 9.56616C18.8578 8.03038 20.5758 5.81779 20.7971 5.53145ZM12.8708 1.77006C15.4739 1.77006 17.8557 2.7462 19.6648 4.34707C19.4826 4.60738 17.9337 6.6768 14.2895 8.04338C12.6105 4.95878 10.7494 2.43384 10.463 2.04338C11.2309 1.86117 12.0379 1.77006 12.8708 1.77006ZM8.51077 2.73319C8.78408 3.09761 10.6062 5.63558 12.3112 8.6551C7.52161 9.93058 3.29168 9.90456 2.83614 9.90456C3.49991 6.72886 5.64743 4.08677 8.51077 2.73319ZM2.61488 12.013C2.61488 11.9089 2.61488 11.8048 2.61488 11.7006C3.0574 11.7137 8.02921 11.7787 13.1442 10.243C13.4435 10.8156 13.7168 11.4013 13.9771 11.987C13.847 12.026 13.7038 12.0651 13.5737 12.1041C8.28951 13.8091 5.47823 18.4686 5.24396 18.859C3.61705 17.0499 2.61488 14.6421 2.61488 12.013ZM12.8708 22.256C10.5021 22.256 8.31553 21.449 6.58451 20.0954C6.76674 19.718 8.84917 15.7093 14.6279 13.692C14.6539 13.679 14.6669 13.679 14.693 13.6659C16.1377 17.4013 16.7234 20.538 16.8795 21.436C15.6431 21.9696 14.2895 22.256 12.8708 22.256ZM18.5845 20.4989C18.4804 19.8742 17.9338 16.8807 16.5932 13.1974C19.808 12.6898 22.6192 13.5228 22.9706 13.6399C22.5281 16.4902 20.8882 18.9501 18.5845 20.4989Z" fill="white"/>
</g>
<defs>
<clipPath id="clip0">
<rect width="24" height="24" fill="white" transform="translate(0.87085)"/>
</clipPath>
</defs>
</svg>
