<svg width="22" height="22" viewBox="0 0 22 22" fill="none" xmlns="http://www.w3.org/2000/svg">
<rect width="21.6207" height="22" fill="white"/>
<path d="M1.17676 17.9008H4.3384V7.96978H1.17676V17.9008Z" fill="black"/>
<path d="M9.15036 18.0689C10.534 18.0689 11.4909 17.5323 12.034 16.5172H12.1116L12.138 21.0517L15.0857 18.0689V11.1508C15.0857 9.04953 13.2172 7.84047 10.6892 7.84047C8.01889 7.84047 6.51081 9.28875 6.25865 11.0991H9.16975C9.30553 10.4655 9.82924 10.0775 10.6633 10.0775C11.4392 10.0775 11.9305 10.4525 11.9305 11.1185V11.1508C11.9305 11.7586 11.271 11.8879 9.57708 12.0366C7.56631 12.2047 5.88527 12.9482 5.88527 15.1465C5.88527 17.112 7.24949 18.0689 9.15036 18.0689ZM10.1267 15.9999C9.39605 15.9999 8.87881 15.6508 8.87881 14.9913C8.87881 14.3512 9.37308 13.8103 10.2818 13.8275C11.1897 13.8448 11.569 13.8275 11.9499 13.8275V14.3706C11.9499 15.3405 11.1353 15.9999 10.1267 15.9999Z" fill="black"/>
<path d="M18.7969 18.0883C19.6827 18.0883 20.465 17.3383 20.4779 16.4073C20.465 15.4892 19.6827 14.7456 18.7969 14.7456C17.8659 14.7456 17.1029 15.4892 17.1159 16.4073C17.1029 17.3383 17.8659 18.0883 18.7969 18.0883Z" fill="black"/>
<path d="M1.17676 3.60339V6.81246H4.3384V3.60339H1.17676Z" fill="black"/>
</svg>
