<svg width="33" height="24" viewBox="0 0 33 24" fill="none" xmlns="http://www.w3.org/2000/svg">
<path d="M32.8706 2.00019V22C32.8706 23.1333 32.0039 24 30.8706 24H28.8706V5.84949L16.8707 14.4668L4.87081 5.84949V24H2.87083C1.73618 24 0.87085 23.1333 0.87085 22V2.00019C0.87085 1.43353 1.08685 0.933537 1.44551 0.576207C1.63269 0.390022 1.85521 0.24315 2.09999 0.144232C2.34476 0.0453139 2.60685 -0.00365298 2.87083 0.000212226H3.53749L16.8707 9.66679L30.2039 0.000212226H30.8706C31.4372 0.000212226 31.9372 0.21621 32.2959 0.576207C32.6559 0.933537 32.8706 1.43353 32.8706 2.00019Z" fill="white"/>
</svg>
