<svg width="44" height="24" viewBox="0 0 44 24" fill="none" xmlns="http://www.w3.org/2000/svg">
<path d="M24.707 12.0002C24.707 18.6275 19.3709 24 12.789 24C6.20698 24 0.870544 18.6275 0.870544 12.0002C0.870544 5.37288 6.20658 0 12.789 0C19.3713 0 24.707 5.37288 24.707 12.0002Z" fill="white"/>
<path d="M37.7814 12.0002C37.7814 18.2384 35.1134 23.2975 31.8222 23.2975C28.531 23.2975 25.863 18.2384 25.863 12.0002C25.863 5.76201 28.5306 0.702941 31.8218 0.702941C35.113 0.702941 37.781 5.76039 37.781 12.0002" fill="white"/>
<path d="M43.1292 12.0002C43.1292 17.5881 42.191 22.1208 41.0333 22.1208C39.8757 22.1208 38.9379 17.5893 38.9379 12.0002C38.9379 6.4111 39.8761 1.87964 41.0333 1.87964C42.1906 1.87964 43.1292 6.41069 43.1292 12.0002Z" fill="white"/>
</svg>
