<svg width="25" height="24" viewBox="0 0 25 24" fill="none" xmlns="http://www.w3.org/2000/svg">
<g clip-path="url(#clip0)">
<path fill-rule="evenodd" clip-rule="evenodd" d="M12.8708 0C6.24085 0 0.87085 5.37 0.87085 12C0.87085 17.31 4.30585 21.795 9.07585 23.385C9.67585 23.49 9.90085 23.13 9.90085 22.815C9.90085 22.53 9.88585 21.585 9.88585 20.58C6.87085 21.135 6.09085 19.845 5.85085 19.17C5.71585 18.825 5.13085 17.76 4.62085 17.475C4.20085 17.25 3.60085 16.695 4.60585 16.68C5.55085 16.665 6.22585 17.55 6.45085 17.91C7.53085 19.725 9.25585 19.215 9.94585 18.9C10.0508 18.12 10.3658 17.595 10.7108 17.295C8.04085 16.995 5.25085 15.96 5.25085 11.37C5.25085 10.065 5.71585 8.985 6.48085 8.145C6.36085 7.845 5.94085 6.615 6.60085 4.965C6.60085 4.965 7.60585 4.65 9.90085 6.195C10.8608 5.925 11.8808 5.79 12.9009 5.79C13.9209 5.79 14.9409 5.925 15.9009 6.195C18.1959 4.635 19.2008 4.965 19.2008 4.965C19.8608 6.615 19.4408 7.845 19.3209 8.145C20.0858 8.985 20.5508 10.05 20.5508 11.37C20.5508 15.975 17.7458 16.995 15.0758 17.295C15.5108 17.67 15.8858 18.39 15.8858 19.515C15.8858 21.12 15.8708 22.41 15.8708 22.815C15.8708 23.13 16.0958 23.505 16.6959 23.385C21.4359 21.795 24.8708 17.295 24.8708 12C24.8708 5.37 19.5009 0 12.8708 0Z" fill="white"/>
</g>
<defs>
<clipPath id="clip0">
<rect width="24" height="24" fill="white" transform="translate(0.87085)"/>
</clipPath>
</defs>
</svg>
