<svg width="25" height="24" viewBox="0 0 25 24" fill="none" xmlns="http://www.w3.org/2000/svg">
<g clip-path="url(#clip0)">
<path d="M20.5762 20.452H17.0222V14.883C17.0222 13.555 16.9952 11.846 15.1702 11.846C13.3172 11.846 13.0342 13.291 13.0342 14.785V20.452H9.48021V9H12.8942V10.561H12.9402C13.4172 9.661 14.5772 8.711 16.3102 8.711C19.9112 8.711 20.5772 11.081 20.5772 14.166V20.452H20.5762ZM5.46621 7.433C5.19509 7.43313 4.9266 7.37979 4.67612 7.27604C4.42563 7.17229 4.19807 7.02015 4.00645 6.82835C3.81483 6.63654 3.66292 6.40883 3.55941 6.15825C3.45589 5.90766 3.40282 5.63912 3.40321 5.368C3.40341 4.95978 3.52465 4.56078 3.75161 4.22147C3.97857 3.88216 4.30105 3.61777 4.67828 3.46173C5.0555 3.30569 5.47052 3.26502 5.87086 3.34485C6.2712 3.42469 6.63887 3.62144 6.92739 3.91024C7.2159 4.19903 7.4123 4.5669 7.49175 4.96731C7.57119 5.36773 7.53012 5.78271 7.37372 6.15978C7.21731 6.53685 6.95261 6.85908 6.61308 7.08571C6.27354 7.31234 5.87443 7.4332 5.46621 7.433ZM7.24821 20.452H3.68421V9H7.24821V20.452ZM22.3542 0H1.90021C0.921211 0 0.129211 0.774 0.129211 1.729V22.271C0.129211 23.227 0.921211 24 1.90021 24H22.3512C23.3292 24 24.1292 23.227 24.1292 22.271V1.729C24.1292 0.774 23.3292 0 22.3512 0H22.3542Z" fill="white"/>
</g>
<defs>
<clipPath id="clip0">
<rect width="24" height="24" fill="white" transform="translate(0.129211)"/>
</clipPath>
</defs>
</svg>
