<svg width="40" height="40" viewBox="0 0 40 40" fill="none" xmlns="http://www.w3.org/2000/svg">
<rect x="1.5" y="1.5" width="37" height="37" rx="18.5" stroke="white" stroke-width="3"/>
<g clip-path="url(#clip0_621_7)">
<path d="M21.8456 20.182C21.8456 24.7006 18.2074 28.3636 13.7197 28.3636C9.23198 28.3636 5.59351 24.7006 5.59351 20.182C5.59351 15.6633 9.23171 12 13.7197 12C18.2077 12 21.8456 15.6633 21.8456 20.182Z" fill="white"/>
<path d="M30.7601 20.1819C30.7601 24.4352 28.941 27.8846 26.697 27.8846C24.453 27.8846 22.6339 24.4352 22.6339 20.1819C22.6339 15.9286 24.4527 12.4792 26.6967 12.4792C28.9407 12.4792 30.7601 15.9275 30.7601 20.1819Z" fill="white"/>
<path d="M34.4063 20.182C34.4063 23.9919 33.7666 27.0824 32.9773 27.0824C32.188 27.0824 31.5486 23.9927 31.5486 20.182C31.5486 16.3712 32.1883 13.2816 32.9773 13.2816C33.7663 13.2816 34.4063 16.371 34.4063 20.182Z" fill="white"/>
</g>
<defs>
<clipPath id="clip0_621_7">
<rect width="30" height="16.3636" fill="white" transform="translate(5 12)"/>
</clipPath>
</defs>
</svg>
