<svg width="33" height="24" viewBox="0 0 33 24" fill="none" xmlns="http://www.w3.org/2000/svg">
<path d="M32.1292 0H0.129211V24H32.1292V0ZM30.7959 22.6667H1.46254V1.33333H30.7959V22.6667Z" fill="white"/>
<path d="M14.7957 13.3338C14.7957 11.7012 13.6137 10.3452 12.0617 10.0612C12.5137 9.49183 12.7957 8.78183 12.7957 8.00049C12.7957 6.16249 11.3004 4.66716 9.46239 4.66716C7.62439 4.66716 6.12906 6.16249 6.12906 8.00049C6.12906 8.78183 6.41039 9.49183 6.86306 10.0612C5.31106 10.3452 4.12906 11.7012 4.12906 13.3338V18.0005H14.7957V13.3338ZM9.46239 6.00049C10.5651 6.00049 11.4624 6.89783 11.4624 8.00049C11.4624 9.10316 10.5651 10.0005 9.46239 10.0005C8.35973 10.0005 7.46239 9.10316 7.46239 8.00049C7.46239 6.89783 8.35973 6.00049 9.46239 6.00049ZM13.4624 16.6672H5.46239V13.3338C5.46239 12.2312 6.35973 11.3338 7.46239 11.3338H11.4624C12.5651 11.3338 13.4624 12.2312 13.4624 13.3338V16.6672ZM16.7957 6.66716H21.4624V8.00049H16.7957V6.66716ZM23.4624 6.66716H28.1291V8.00049H23.4624V6.66716ZM16.7957 10.0005H18.7957V11.3338H16.7957V10.0005ZM20.7957 10.0005H28.1291V11.3338H20.7957V10.0005ZM16.7957 13.3338H22.1291V14.6672H16.7957V13.3338ZM25.4624 13.3338H28.1291V14.6672H25.4624V13.3338ZM16.7957 16.6672H18.1291V18.0005H16.7957V16.6672ZM19.4624 16.6672H20.7957V18.0005H19.4624V16.6672ZM22.1291 16.6672H23.4624V18.0005H22.1291V16.6672ZM26.7957 16.6672H28.1291V18.0005H26.7957V16.6672Z" fill="white"/>
</svg>
